# xmcd
#
# Track frame offsets: 
#        150
#        19709
#        55967
#        77028
#        101074
#        129739
#        148313
#        186733
#        204182
#        237160
#        264313
#        287826
#
# Disc length: 4418 seconds
#
# Revision: 0
# Processed by: cddbd v1.5.2PL0 Copyright (c) Steve Scherf et al.
# Submitted via: ExactAudioCopy v1.3
#
DISCID=b411400c
DTITLE=145th Street - Pure Mud
DYEAR=2014
DGENRE=Chicago Blues, Electric Blues
TTITLE0=Walkin Through the Park
TTITLE1=Long Distance Call
TTITLE2=Champagne and Reefer
TTITLE3=Blow Wind Blow
TTITLE4=Hoochie Coochie Man
TTITLE5=Sugar Sweet
TTITLE6=Same Thing
TTITLE7=Live the Life I Love
TTITLE8=She's 19 Years Old
TTITLE9=Can't Lose What You Ain't Never Had
TTITLE10=I Just Wanna Make Love to You
TTITLE11=I Got My Mojo Workin'
EXTD=
EXTT0=
EXTT1=
EXTT2=
EXTT3=
EXTT4=
EXTT5=
EXTT6=
EXTT7=
EXTT8=
EXTT9=
EXTT10=
EXTT11=
PLAYORDER=
